<svg width="20" height="20" viewBox="0 0 20 20" fill="none" xmlns="http://www.w3.org/2000/svg">
<path fill-rule="evenodd" clip-rule="evenodd" d="M0 10.0001C0 4.48603 4.4859 0 9.99964 0C15.5137 0 20.0001 4.48603 20.0001 10.0001C20.0001 15.514 15.5137 20 9.99964 20C4.4859 20 0 15.514 0 10.0001ZM1.31153 10.0001C1.31153 14.791 5.20899 18.6886 9.99964 18.6886C14.7907 18.6886 18.6886 14.791 18.6886 10.0001C18.6886 5.20925 14.7907 1.31162 9.99964 1.31162C5.20888 1.31162 1.31153 5.20909 1.31153 10.0001ZM12.3465 6.72637C12.6026 6.47029 13.0175 6.47029 13.2737 6.72637C13.5298 6.9828 13.5298 7.39783 13.2737 7.65376L10.9273 10.0001L13.2737 12.3465C13.5298 12.6022 13.5298 13.0176 13.2737 13.2739C13.1456 13.4018 12.9777 13.4658 12.81 13.4658C12.6422 13.4658 12.4745 13.4018 12.3465 13.2739L10.0001 10.9272L7.65325 13.2735C7.52516 13.4016 7.35745 13.4656 7.18959 13.4656C7.02188 13.4656 6.85405 13.4016 6.72596 13.2735C6.46978 13.0174 6.46978 12.6022 6.72596 12.3463L9.07237 10.0001L6.7263 7.65376C6.47013 7.39783 6.47013 6.98246 6.7263 6.72637C6.98248 6.47029 7.39754 6.47029 7.65369 6.72637L10.0001 9.07272L12.3465 6.72637Z" fill="#BDBDBD"/>
</svg>
