<svg width="9" height="18" viewBox="0 0 9 18" xmlns="http://www.w3.org/2000/svg">
<path fill-rule="evenodd" clip-rule="evenodd" d="M8.1544 0.99736H6.33277C4.93893 0.99736 3.93769 1.30452 3.32923 1.91942C2.72076 2.53488 2.41674 3.44022 2.41674 4.63736V5.77926C2.41674 6.0811 2.1538 6.32466 1.82938 6.32466H1.19982C0.875423 6.32466 0.612457 6.56976 0.612457 6.8714V8.5813C0.612457 8.88296 0.875423 9.12766 1.19982 9.12766H1.82938C2.1538 9.12766 2.41674 9.37162 2.41674 9.67346V16.7128C2.41674 17.0146 2.6796 17.2589 3.00379 17.2589H5.44819C5.77248 17.2589 6.03556 17.0146 6.03556 16.7128V9.67346C6.03556 9.37162 6.29839 9.12766 6.62281 9.12766H7.85721C8.18161 9.12766 8.47212 8.88428 8.50627 8.58416L8.70107 6.8678C8.73532 6.56824 8.50003 6.32466 8.1755 6.32466H6.62258C6.29816 6.32466 6.03545 6.0811 6.03545 5.77926V4.92422C6.03545 4.71348 6.04599 4.55118 6.06707 4.43594C6.08839 4.3207 6.13625 4.207 6.21052 4.0948C6.28468 3.98278 6.40499 3.9061 6.57122 3.86282C6.73744 3.82066 6.9588 3.79902 7.23456 3.79902H8.15428C8.4787 3.79902 8.74144 3.5547 8.74144 3.25342V1.5422C8.74167 1.24092 8.47882 0.99736 8.1544 0.99736Z"/>
</svg>
