<svg width="22" height="19" viewBox="0 0 22 19" fill="none" xmlns="http://www.w3.org/2000/svg">
<path fill-rule="evenodd" clip-rule="evenodd" d="M11.0805 18.3692C11.0805 18.3692 -4.99994 5.31252 3.19577 1.0423C7.92276 -1.42041 11.0002 1.73188 11.0002 1.73188C11.0002 1.73188 14.0775 -1.42041 18.8047 1.0423C27.0001 5.31252 11.0805 18.3692 11.0805 18.3692ZM10.9458 4.14801C10.6343 3.8001 9.74584 3.0978 9.29886 2.82591C8.85537 2.55588 7.01143 1.46254 4.61792 2.70977C3.89587 3.08574 3.54829 3.52985 3.45564 4.19344C3.43877 4.31536 3.43041 4.44146 3.43041 4.57057C3.43041 7.44935 7.52751 12.1377 11.0702 15.3697C14.561 12.1483 18.5872 7.48249 18.5872 4.60325C18.5872 4.46904 18.5784 4.33877 18.5603 4.21269C18.4642 3.53934 18.112 3.09013 17.3826 2.70977C14.989 1.46254 13.6612 2.23462 12.86 2.7216C11.7913 3.37129 11.302 3.8001 10.9458 4.14801Z" fill="white"/>
</svg>
