<svg xmlns="http://www.w3.org/2000/svg" width="73" height="64" viewBox="0 0 73 64">
  <metadata><?xpacket begin="﻿" id="W5M0MpCehiHzreSzNTczkc9d"?>
<x:xmpmeta xmlns:x="adobe:ns:meta/" x:xmptk="Adobe XMP Core 5.6-c138 79.159824, 2016/09/14-01:09:01        ">
   <rdf:RDF xmlns:rdf="http://www.w3.org/1999/02/22-rdf-syntax-ns#">
      <rdf:Description rdf:about=""/>
   </rdf:RDF>
</x:xmpmeta>
                                                                                                    
                                                                                                    
                                                                                                    
                                                                                                    
                                                                                                    
                                                                                                    
                                                                                                    
                                                                                                    
                                                                                                    
                                                                                                    
                                                                                                    
                                                                                                    
                                                                                                    
                                                                                                    
                                                                                                    
                                                                                                    
                                                                                                    
                                                                                                    
                                                                                                    
                                                                                                    
                           
<?xpacket end="w"?></metadata>
<defs>
    <style>
      .cls-1 {
        fill: #4d5569;
        fill-rule: evenodd;
      }
    </style>
  </defs>
  <path id="команда_иконка" data-name="команда иконка" class="cls-1" d="M1115.36,957.988A36.434,36.434,0,0,0,1080,995.4a35.83,35.83,0,0,0,8.44,22.091c0.44,0.52,3.86,5.1,3.86,1.63v-15.83a4.844,4.844,0,0,1,4.85-4.822h3.83a4.836,4.836,0,0,1,4.68,3.592v18.69a1.231,1.231,0,0,0,1.24,1.23,1.244,1.244,0,0,0,1.24-1.23V998.3a5.939,5.939,0,0,1,5.95-5.914h4.51a5.931,5.931,0,0,1,5.94,5.914v22.484a1.24,1.24,0,0,0,2.48,0v-18.53a4.845,4.845,0,0,1,4.68-3.586h3.83a4.838,4.838,0,0,1,4.84,4.826v15.83c0,3.54,5.2-3.07,5.59-3.6a35.777,35.777,0,0,0,7.05-22.58A36.472,36.472,0,0,0,1115.36,957.988Zm-16.29,37.086a5.1,5.1,0,1,1,5.13-5.1A5.12,5.12,0,0,1,1099.07,995.074Zm17.27-6.007a6.455,6.455,0,1,1,6.5-6.454A6.478,6.478,0,0,1,1116.34,989.067Zm17.27,6.2a5.1,5.1,0,1,1,5.13-5.1A5.119,5.119,0,0,1,1133.61,995.269Zm10.35,18.991c-0.35.49-.73,0.96-1.11,1.43v-12.2a7.31,7.31,0,0,0-5.15-6.958,7.607,7.607,0,1,0-8.18,0,7.3,7.3,0,0,0-2.52,1.37,8.4,8.4,0,0,0-6.06-7.649,8.97,8.97,0,1,0-9.2,0,8.394,8.394,0,0,0-6.05,7.46,7.418,7.418,0,0,0-2.53-1.376,7.608,7.608,0,1,0-8.19,0,7.307,7.307,0,0,0-5.14,6.953v11.98a33.292,33.292,0,0,1-7.36-19.947,34.047,34.047,0,0,1,68.06-2.107A33.269,33.269,0,0,1,1143.96,1014.26Z" transform="translate(-1080 -958)"/>
</svg>
