<svg xmlns="http://www.w3.org/2000/svg" width="49.97" height="77" viewBox="0 0 49.97 77">
  <metadata><?xpacket begin="﻿" id="W5M0MpCehiHzreSzNTczkc9d"?>
<x:xmpmeta xmlns:x="adobe:ns:meta/" x:xmptk="Adobe XMP Core 5.6-c138 79.159824, 2016/09/14-01:09:01        ">
   <rdf:RDF xmlns:rdf="http://www.w3.org/1999/02/22-rdf-syntax-ns#">
      <rdf:Description rdf:about=""/>
   </rdf:RDF>
</x:xmpmeta>
                                                                                                    
                                                                                                    
                                                                                                    
                                                                                                    
                                                                                                    
                                                                                                    
                                                                                                    
                                                                                                    
                                                                                                    
                                                                                                    
                                                                                                    
                                                                                                    
                                                                                                    
                                                                                                    
                                                                                                    
                                                                                                    
                                                                                                    
                                                                                                    
                                                                                                    
                                                                                                    
                           
<?xpacket end="w"?></metadata>
<defs>
    <style>
      .cls-1 {
        fill: #4d5569;
        fill-rule: evenodd;
      }
    </style>
  </defs>
  <path id="планшет" class="cls-1" d="M1116.13,1723.82h-26.3a0.945,0.945,0,0,1-1-1v-5.71a4.913,4.913,0,0,1,5.12-4.6h2.61a6.618,6.618,0,0,1,13.05,0h2.61a4.853,4.853,0,0,1,5.12,4.6v5.71A1.287,1.287,0,0,1,1116.13,1723.82Zm-25.3-2h24.4v-4.71a2.926,2.926,0,0,0-3.11-2.6h-3.52a0.945,0.945,0,0,1-1-1,4.52,4.52,0,0,0-9.04,0,0.945,0.945,0,0,1-1,1h-3.51a2.861,2.861,0,0,0-3.12,2.6v4.71h-0.1Zm12.15-9.71a1.5,1.5,0,1,1-1.51,1.5A1.507,1.507,0,0,1,1102.98,1712.11Zm23.99,71.89h-47.98a0.955,0.955,0,0,1-1.01-1.01v-63.98a0.953,0.953,0,0,1,1.01-1h10.44a1.005,1.005,0,0,1,0,2.01h-9.44v61.87h45.98v-61.87h-9.54a1.005,1.005,0,0,1,0-2.01h10.54a0.947,0.947,0,0,1,1.01,1v63.88A1.033,1.033,0,0,1,1126.97,1784Zm-10.84-47.66h-26.3a1.005,1.005,0,0,1,0-2.01h26.4a0.953,0.953,0,0,1,1.01,1A1.038,1.038,0,0,1,1116.13,1736.34Zm0,8.01h-26.3a1.005,1.005,0,0,1,0-2.01h26.4a0.953,0.953,0,0,1,1.01,1A1.038,1.038,0,0,1,1116.13,1744.35Zm0,8.01h-26.3a1.005,1.005,0,0,1,0-2.01h26.4a0.953,0.953,0,0,1,1.01,1A1.038,1.038,0,0,1,1116.13,1752.36Zm0,8.01h-26.3a1.005,1.005,0,0,1,0-2.01h26.4a0.955,0.955,0,0,1,1.01,1.01A1.037,1.037,0,0,1,1116.13,1760.37Zm0,8.01h-26.3a1.005,1.005,0,0,1,0-2.01h26.4a0.955,0.955,0,0,1,1.01,1.01A1.037,1.037,0,0,1,1116.13,1768.38Z" transform="translate(-1078 -1707)"/>
</svg>
