<svg width="13" height="20" viewBox="0 0 13 20" xmlns="http://www.w3.org/2000/svg">
<path d="M6.2441 10.8232C9.23283 10.8232 11.6557 8.40035 11.6557 5.41158C11.6557 2.42281 9.23287 0 6.2441 0C3.25533 0 0.83252 2.42285 0.83252 5.41162C0.836188 8.39883 3.2569 10.8195 6.2441 10.8232ZM6.2441 2.49767C7.85342 2.49767 9.15806 3.80227 9.15806 5.41162C9.15806 7.02098 7.85346 8.32558 6.2441 8.32558C4.63475 8.32558 3.33015 7.02098 3.33015 5.41162C3.33015 3.80227 4.63479 2.49767 6.2441 2.49767Z"/>
<path d="M11.5451 13.3875C12.1333 13.0001 12.4876 12.3433 12.4884 11.6391C12.4966 11.0547 12.1668 10.518 11.6417 10.2612C11.1022 9.99174 10.4564 10.0524 9.97662 10.4178C7.7528 12.039 4.73659 12.039 2.51277 10.4178C2.0322 10.0543 1.38753 9.99373 0.847647 10.2612C0.322786 10.5179 -0.00717925 11.054 0.000118617 11.6383C0.00136745 12.3424 0.355607 12.9989 0.943417 13.3866C1.69756 13.8881 2.51882 14.2806 3.38282 14.5522C3.52936 14.5977 3.68058 14.6399 3.83657 14.6788L1.3206 17.139C0.660595 17.7794 0.644634 18.8335 1.28501 19.4935C1.92539 20.1535 2.97952 20.1695 3.63957 19.5291C3.65331 19.5158 3.66681 19.5022 3.68008 19.4884L6.24436 16.8342L8.81364 19.4934C9.45347 20.1539 10.5076 20.1707 11.1682 19.5309C11.8287 18.891 11.8455 17.8369 11.2056 17.1764C11.1922 17.1625 11.1786 17.149 11.1648 17.1356L8.65293 14.6779C8.80888 14.6379 8.96069 14.5955 9.10833 14.5505C9.97139 14.2799 10.7919 13.8883 11.5451 13.3875Z"/>
</svg>
