<svg width="16" height="14" viewBox="0 0 16 14" xmlns="http://www.w3.org/2000/svg">
<path fill-rule="evenodd" clip-rule="evenodd" d="M15.5284 1.97775C15.4495 2.00184 15.3707 2.02457 15.2919 2.04519C14.8096 2.17059 14.7654 2.00377 15.1143 1.63834C15.2706 1.47383 15.4089 1.29546 15.5288 1.10302C15.7977 0.670355 15.5645 0.482536 15.1071 0.684224C14.9438 0.755311 14.7779 0.82119 14.6098 0.880133C14.1384 1.04271 13.4694 0.796349 13.0495 0.520676C12.5191 0.17395 11.9167 0 11.2414 0C10.2956 0 9.48947 0.343846 8.82262 1.03309C8.15589 1.72214 7.8223 2.55605 7.8223 3.5325C7.8223 3.66581 7.82964 3.80162 7.84412 3.93954C7.86821 4.16337 7.50328 4.32595 7.0109 4.25373C5.94572 4.09865 4.93367 3.76483 3.97472 3.25357C3.02356 2.74656 2.18414 2.10856 1.45639 1.33995C1.10878 0.972404 0.638231 1.00382 0.508402 1.49965C0.430585 1.79727 0.391916 2.10606 0.391916 2.42795C0.391916 3.03301 0.529327 3.59453 0.804629 4.11176C0.941439 4.36968 1.10189 4.60335 1.28594 4.8116C1.59545 5.16334 1.54825 5.36656 1.11708 5.24212C0.686242 5.1173 0.370651 4.93141 0.370651 4.94373C0.370651 4.95529 0.370651 4.96569 0.370651 4.96569C0.370651 5.81867 0.629689 6.56745 1.14851 7.21277C1.46786 7.61094 1.83918 7.91683 2.26183 8.13394C2.70771 8.36182 2.91536 8.48993 2.66612 8.52305C2.51551 8.5431 2.3642 8.55215 2.21228 8.55215C2.109 8.55215 2.00104 8.54753 1.88839 8.53789C1.70995 8.52248 1.67808 8.90697 1.94832 9.33808C2.16323 9.68058 2.43815 9.98263 2.77317 10.2427C3.1139 10.5083 3.48115 10.6985 3.87433 10.8142C4.35272 10.9549 4.44864 11.212 4.02217 11.4763C2.96689 12.1305 1.79877 12.4578 0.518444 12.4578C0.374272 12.4578 0.236621 12.4547 0.105052 12.4481C-0.123039 12.436 0.0299153 12.6446 0.470554 12.8825C1.847 13.6274 3.33789 14 4.94301 14C6.1565 14 7.29614 13.8012 8.36188 13.4038C9.42719 13.0064 10.3377 12.4744 11.0926 11.8065C11.8477 11.1398 12.4988 10.3729 13.0456 9.50472C13.5925 8.63671 13.9999 7.73057 14.2683 6.78666C14.5363 5.84218 14.6704 4.89674 14.6704 3.94859C14.6704 3.86288 14.6697 3.78601 14.6684 3.71936C14.666 3.59184 14.9909 3.24857 15.3536 2.89663C15.5173 2.73847 15.6734 2.57126 15.8225 2.39655C16.1516 2.01089 16.0057 1.83444 15.5284 1.97775Z"/>
</svg>
