<svg width="18" height="12" viewBox="0 0 18 12" xmlns="http://www.w3.org/2000/svg">
<path fill-rule="evenodd" clip-rule="evenodd" d="M15.0914 5.26511C15.3332 4.93214 15.5252 4.66446 15.6669 4.46304C16.6881 3.01454 17.1308 2.08983 16.9951 1.68717L16.9419 1.59207C16.9066 1.53569 16.8149 1.48349 16.6674 1.43697C16.5196 1.38913 16.3308 1.38172 16.1007 1.41268L13.5508 1.43146C13.4917 1.42558 13.4326 1.4271 13.3735 1.43697C13.3146 1.44608 13.2762 1.45519 13.2585 1.46411C13.2405 1.47475 13.226 1.48158 13.2142 1.48823L13.1789 1.51689C13.1494 1.53569 13.1168 1.5691 13.0816 1.61598C13.0462 1.66288 13.0165 1.71775 12.9929 1.78134C12.7154 2.5428 12.3998 3.25033 12.0455 3.9051C11.8271 4.29616 11.6264 4.63427 11.4434 4.92112C11.2604 5.2074 11.1069 5.41812 10.983 5.55348C10.8591 5.68864 10.7469 5.79762 10.6466 5.87925C10.5461 5.96126 10.4695 5.99504 10.4165 5.98309C10.3632 5.97075 10.313 5.95745 10.2659 5.94455C10.1833 5.88855 10.1167 5.81204 10.0667 5.7139C10.0165 5.61669 9.98266 5.4933 9.96486 5.3456C9.94718 5.19772 9.93664 5.06995 9.93392 4.96326C9.93098 4.85619 9.93232 4.70508 9.93844 4.50973C9.94434 4.31496 9.94718 4.18245 9.94718 4.11354C9.94718 3.87491 9.9517 3.61464 9.96056 3.33443C9.9693 3.05404 9.97676 2.83153 9.98266 2.66846C9.98846 2.50521 9.99152 2.33227 9.99152 2.14906C9.99152 1.96701 9.98108 1.82349 9.96044 1.71946C9.93958 1.61598 9.9084 1.51556 9.86746 1.41742C9.82596 1.31984 9.76564 1.24391 9.6858 1.19075C9.6061 1.13721 9.50734 1.09507 9.38918 1.06318C9.07622 0.987048 8.67774 0.947554 8.19392 0.94054C7.09604 0.92857 6.39052 1.00375 6.07768 1.16797C5.95362 1.2365 5.84146 1.33142 5.74124 1.45083C5.63486 1.58941 5.62014 1.6644 5.697 1.67693C6.05126 1.7335 6.30196 1.8698 6.44958 2.08395L6.50266 2.19652C6.54394 2.27891 6.5851 2.42338 6.62672 2.63107C6.66788 2.83856 6.69452 3.06885 6.70642 3.32039C6.73604 3.77999 6.73604 4.17296 6.70642 4.50061C6.67694 4.82791 6.64894 5.08306 6.6223 5.26511C6.59564 5.44774 6.55596 5.59543 6.5029 5.70933C6.44982 5.82153 6.41434 5.89158 6.39652 5.91684C6.37872 5.9417 6.3641 5.95745 6.35242 5.96391C6.27554 5.99504 6.19592 6.01137 6.11316 6.01137C6.0305 6.01137 5.93026 5.96657 5.81212 5.87925C5.69396 5.79134 5.57136 5.66985 5.44484 5.51552C5.3177 5.36154 5.17484 5.14513 5.01518 4.86796C4.85586 4.59212 4.69054 4.26389 4.5193 3.88649L4.37792 3.61255C4.28936 3.43694 4.16838 3.1799 4.01484 2.84331C3.8613 2.50596 3.72546 2.18153 3.60764 1.86581C3.56024 1.7335 3.4895 1.63346 3.39502 1.56417L3.35092 1.53569C3.32132 1.51006 3.27392 1.48349 3.2092 1.45501C3.14398 1.4271 3.0764 1.40698 3.0053 1.39387L0.5794 1.41248C0.33128 1.41248 0.16334 1.47285 0.07456 1.59207L0.0393 1.64865C0.0215 1.68034 0.01264 1.73104 0.01264 1.80032C0.01264 1.8698 0.03046 1.9541 0.06596 2.05472C0.42018 2.94297 0.80526 3.79878 1.2213 4.62307C1.63758 5.44774 1.99916 6.11256 2.306 6.61564C2.61308 7.11947 2.92594 7.59446 3.24478 8.04154C3.56354 8.48879 3.77454 8.77488 3.87762 8.90074C3.98092 9.0268 4.06212 9.12096 4.12118 9.18361L4.34254 9.41029C4.48394 9.56178 4.69224 9.74231 4.96686 9.95342C5.24116 10.1645 5.54506 10.3718 5.87878 10.5763C6.21216 10.7817 6.6004 10.948 7.0432 11.0777C7.48578 11.2067 7.91666 11.2584 8.33588 11.2324H9.35402C9.56074 11.2138 9.7171 11.1456 9.82336 11.0255L9.85874 10.9788C9.88208 10.941 9.90442 10.8823 9.92518 10.8033C9.9457 10.7249 9.95624 10.6382 9.95624 10.5438C9.95024 10.2729 9.96952 10.0286 10.0136 9.81237C10.058 9.59481 10.1082 9.43193 10.1643 9.32067C10.2205 9.21152 10.2838 9.11755 10.3548 9.04256C10.4256 8.96663 10.4755 8.92145 10.5052 8.90531C10.5348 8.89012 10.5585 8.87892 10.5761 8.87284C10.7174 8.82272 10.8844 8.87113 11.0765 9.01883C11.2681 9.16747 11.4482 9.34953 11.6165 9.56691C11.7847 9.7837 11.9868 10.0274 12.223 10.298C12.4589 10.5691 12.6655 10.7705 12.8428 10.9028L13.02 11.0161C13.138 11.0921 13.2913 11.1604 13.4803 11.2244C13.6692 11.2867 13.8346 11.3024 13.9761 11.2717L16.2428 11.2324C16.4671 11.2324 16.6414 11.1938 16.7653 11.1149C16.8893 11.037 16.963 10.9503 16.9867 10.8555C17.01 10.761 17.0116 10.6545 16.9911 10.5355C16.9703 10.4155 16.9497 10.3316 16.9292 10.2843C16.9084 10.2378 16.8893 10.1979 16.8715 10.1664C16.5763 9.60013 16.0125 8.90455 15.1802 8.07893L15.1625 8.0609L15.1537 8.05141L15.1449 8.04247H15.1361C14.7582 7.65862 14.5193 7.40025 14.419 7.26774C14.2359 7.0162 14.1946 6.76087 14.2951 6.50344C14.3654 6.30752 14.631 5.89443 15.0914 5.26511Z"/>
</svg>
