<svg width="29" height="29" viewBox="0 0 29 29" fill="none" xmlns="http://www.w3.org/2000/svg">
<path fill-rule="evenodd" clip-rule="evenodd" d="M3.12251 28.1026H24.9801C26.7046 28.1026 28.1026 26.7046 28.1026 24.9801V3.12251C28.1026 1.39799 26.7046 0 24.9801 0H3.12251C1.39799 0 0 1.39799 0 3.12251V24.9801C0 26.7046 1.39799 28.1026 3.12251 28.1026Z" fill="#FF0002"/>
<path fill-rule="evenodd" clip-rule="evenodd" d="M12.117 16.4986L12.1164 11.1973L17.1784 13.8571L12.117 16.4986ZM23.2315 10.2786C23.2315 10.2786 23.0483 8.97852 22.4868 8.40599C21.7743 7.65422 20.9757 7.65069 20.6098 7.60705C17.9881 7.41602 14.0555 7.41602 14.0555 7.41602H14.0473C14.0473 7.41602 10.1147 7.41602 7.49292 7.60705C7.12642 7.65069 6.32842 7.65422 5.61532 8.40599C5.05386 8.97852 4.87119 10.2786 4.87119 10.2786C4.87119 10.2786 4.68384 11.8058 4.68384 13.3323V14.7639C4.68384 16.291 4.87119 17.8176 4.87119 17.8176C4.87119 17.8176 5.05386 19.1177 5.61532 19.6902C6.32842 20.442 7.26459 20.4184 7.68144 20.4968C9.18025 20.6419 14.0514 20.6867 14.0514 20.6867C14.0514 20.6867 17.9881 20.6808 20.6098 20.4897C20.9757 20.4455 21.7743 20.442 22.4868 19.6902C23.0483 19.1177 23.2315 17.8176 23.2315 17.8176C23.2315 17.8176 23.4189 16.291 23.4189 14.7639V13.3323C23.4189 11.8058 23.2315 10.2786 23.2315 10.2786Z" fill="white"/>
</svg>
